<?xml version="1.0" encoding="UTF-8" standalone="no"?>
<!DOCTYPE svg PUBLIC "-//W3C//DTD SVG 1.1//EN"
 "http://www.w3.org/Graphics/SVG/1.1/DTD/svg11.dtd">
<!-- Generated by graphviz version 14.0.2 (20251019.1705)
 -->
<!-- Title: G Pages: 1 -->
<svg width="1622pt" height="213pt"
 viewBox="0.00 0.00 1622.00 213.00" xmlns="http://www.w3.org/2000/svg" xmlns:xlink="http://www.w3.org/1999/xlink">
<g id="graph0" class="graph" transform="scale(1 1) rotate(0) translate(7.2 205.44)">
<title>G</title>
<!-- e330a701921df6e8c4228ec6bb69a84a4d39f22a -->
<g id="node1" class="node">
<title>e330a701921df6e8c4228ec6bb69a84a4d39f22a</title>
<ellipse fill="#cb007b" stroke="#cb007b" cx="6.12" cy="-192.12" rx="6.12" ry="6.12"/>
</g>
<!-- 10e2a0296e6407c5051feb17718ef85b2b9eaf00 -->
<g id="node2" class="node">
<title>10e2a0296e6407c5051feb17718ef85b2b9eaf00</title>
<ellipse fill="#cb007b" stroke="#cb007b" cx="61.12" cy="-192.12" rx="6.12" ry="6.12"/>
</g>
<!-- e330a701921df6e8c4228ec6bb69a84a4d39f22a&#45;&gt;10e2a0296e6407c5051feb17718ef85b2b9eaf00 -->
<g id="edge1" class="edge">
<title>e330a701921df6e8c4228ec6bb69a84a4d39f22a&#45;&gt;10e2a0296e6407c5051feb17718ef85b2b9eaf00</title>
<path fill="none" stroke="#cb007b" stroke-width="1.5" d="M12.43,-192 L45.27,-192"/>
<polygon fill="#cb007b" stroke="#cb007b" stroke-width="1.5" points="45.27,-194.45 52.27,-192 45.27,-189.55 45.27,-194.45"/>
</g>
<!-- f2683460a0ae26bff9b95bd66d0aa0e7f6d6a313 -->
<g id="node3" class="node">
<title>f2683460a0ae26bff9b95bd66d0aa0e7f6d6a313</title>
<ellipse fill="#cb007b" stroke="#cb007b" cx="116.12" cy="-192.12" rx="6.12" ry="6.12"/>
</g>
<!-- 10e2a0296e6407c5051feb17718ef85b2b9eaf00&#45;&gt;f2683460a0ae26bff9b95bd66d0aa0e7f6d6a313 -->
<g id="edge2" class="edge">
<title>10e2a0296e6407c5051feb17718ef85b2b9eaf00&#45;&gt;f2683460a0ae26bff9b95bd66d0aa0e7f6d6a313</title>
<path fill="none" stroke="#cb007b" stroke-width="1.5" d="M67.43,-192 L100.27,-192"/>
<polygon fill="#cb007b" stroke="#cb007b" stroke-width="1.5" points="100.27,-194.45 107.27,-192 100.27,-189.55 100.27,-194.45"/>
</g>
<!-- ed1795a8bf5c24f39bb0c2aab67077148a3a5afb -->
<g id="node4" class="node">
<title>ed1795a8bf5c24f39bb0c2aab67077148a3a5afb</title>
<ellipse fill="#cb007b" stroke="#cb007b" cx="171.12" cy="-192.12" rx="6.12" ry="6.12"/>
</g>
<!-- f2683460a0ae26bff9b95bd66d0aa0e7f6d6a313&#45;&gt;ed1795a8bf5c24f39bb0c2aab67077148a3a5afb -->
<g id="edge3" class="edge">
<title>f2683460a0ae26bff9b95bd66d0aa0e7f6d6a313&#45;&gt;ed1795a8bf5c24f39bb0c2aab67077148a3a5afb</title>
<path fill="none" stroke="#cb007b" stroke-width="1.5" d="M122.43,-192 L155.27,-192"/>
<polygon fill="#cb007b" stroke="#cb007b" stroke-width="1.5" points="155.27,-194.45 162.27,-192 155.27,-189.55 155.27,-194.45"/>
</g>
<!-- 4d339eb77a186944e48236731a907d3e91acc787 -->
<g id="node5" class="node">
<title>4d339eb77a186944e48236731a907d3e91acc787</title>
<ellipse fill="#cb007b" stroke="#cb007b" cx="226.12" cy="-192.12" rx="6.12" ry="6.12"/>
</g>
<!-- ed1795a8bf5c24f39bb0c2aab67077148a3a5afb&#45;&gt;4d339eb77a186944e48236731a907d3e91acc787 -->
<g id="edge4" class="edge">
<title>ed1795a8bf5c24f39bb0c2aab67077148a3a5afb&#45;&gt;4d339eb77a186944e48236731a907d3e91acc787</title>
<path fill="none" stroke="#cb007b" stroke-width="1.5" d="M177.43,-192 L210.27,-192"/>
<polygon fill="#cb007b" stroke="#cb007b" stroke-width="1.5" points="210.27,-194.45 217.27,-192 210.27,-189.55 210.27,-194.45"/>
</g>
<!-- 4ed0dc8a51f3f06345796f7851732f3ea00ec784 -->
<g id="node6" class="node">
<title>4ed0dc8a51f3f06345796f7851732f3ea00ec784</title>
<ellipse fill="#cb007b" stroke="#cb007b" cx="281.12" cy="-192.12" rx="6.12" ry="6.12"/>
</g>
<!-- 4d339eb77a186944e48236731a907d3e91acc787&#45;&gt;4ed0dc8a51f3f06345796f7851732f3ea00ec784 -->
<g id="edge5" class="edge">
<title>4d339eb77a186944e48236731a907d3e91acc787&#45;&gt;4ed0dc8a51f3f06345796f7851732f3ea00ec784</title>
<path fill="none" stroke="#cb007b" stroke-width="1.5" d="M232.43,-192 L265.27,-192"/>
<polygon fill="#cb007b" stroke="#cb007b" stroke-width="1.5" points="265.27,-194.45 272.27,-192 265.27,-189.55 265.27,-194.45"/>
</g>
<!-- 35485bd0d09a6551456fb6708acf9e9d19d88bed -->
<g id="node7" class="node">
<title>35485bd0d09a6551456fb6708acf9e9d19d88bed</title>
<ellipse fill="#2ca02c" stroke="#2ca02c" cx="336.12" cy="-84.12" rx="6.12" ry="6.12"/>
</g>
<!-- 4ed0dc8a51f3f06345796f7851732f3ea00ec784&#45;&gt;35485bd0d09a6551456fb6708acf9e9d19d88bed -->
<g id="edge6" class="edge">
<title>4ed0dc8a51f3f06345796f7851732f3ea00ec784&#45;&gt;35485bd0d09a6551456fb6708acf9e9d19d88bed</title>
<path fill="none" stroke="#2ca02c" stroke-width="1.5" d="M287.01,-190 L328.12,-190 Q336.12,-190 336.12,-182 L336.12,-99.7"/>
<polygon fill="#2ca02c" stroke="#2ca02c" stroke-width="1.5" points="338.57,-99.7 336.12,-92.7 333.67,-99.7 338.57,-99.7"/>
</g>
<!-- 31ca30aeb934203310a848d4bade4bbdcc76594d -->
<g id="node10" class="node">
<title>31ca30aeb934203310a848d4bade4bbdcc76594d</title>
<ellipse fill="#cb007b" stroke="#cb007b" cx="501.12" cy="-192.12" rx="6.12" ry="6.12"/>
</g>
<!-- 4ed0dc8a51f3f06345796f7851732f3ea00ec784&#45;&gt;31ca30aeb934203310a848d4bade4bbdcc76594d -->
<g id="edge9" class="edge">
<title>4ed0dc8a51f3f06345796f7851732f3ea00ec784&#45;&gt;31ca30aeb934203310a848d4bade4bbdcc76594d</title>
<path fill="none" stroke="#cb007b" stroke-width="1.5" d="M287.47,-194 L485.89,-194"/>
<polygon fill="#cb007b" stroke="#cb007b" stroke-width="1.5" points="485.89,-196.45 492.89,-194 485.89,-191.55 485.89,-196.45"/>
</g>
<!-- 23966869013264ae5bb51765a1fd019c9ccfb512 -->
<g id="node8" class="node">
<title>23966869013264ae5bb51765a1fd019c9ccfb512</title>
<ellipse fill="#2ca02c" stroke="#2ca02c" cx="391.12" cy="-84.12" rx="6.12" ry="6.12"/>
</g>
<!-- 35485bd0d09a6551456fb6708acf9e9d19d88bed&#45;&gt;23966869013264ae5bb51765a1fd019c9ccfb512 -->
<g id="edge7" class="edge">
<title>35485bd0d09a6551456fb6708acf9e9d19d88bed&#45;&gt;23966869013264ae5bb51765a1fd019c9ccfb512</title>
<path fill="none" stroke="#2ca02c" stroke-width="1.5" d="M342.43,-84 L375.27,-84"/>
<polygon fill="#2ca02c" stroke="#2ca02c" stroke-width="1.5" points="375.27,-86.45 382.27,-84 375.27,-81.55 375.27,-86.45"/>
</g>
<!-- f2cb3cddc5511481e1c0be8ece6b77364313a2e3 -->
<g id="node9" class="node">
<title>f2cb3cddc5511481e1c0be8ece6b77364313a2e3</title>
<ellipse fill="#2ca02c" stroke="#2ca02c" cx="446.12" cy="-84.12" rx="6.12" ry="6.12"/>
</g>
<!-- 23966869013264ae5bb51765a1fd019c9ccfb512&#45;&gt;f2cb3cddc5511481e1c0be8ece6b77364313a2e3 -->
<g id="edge8" class="edge">
<title>23966869013264ae5bb51765a1fd019c9ccfb512&#45;&gt;f2cb3cddc5511481e1c0be8ece6b77364313a2e3</title>
<path fill="none" stroke="#2ca02c" stroke-width="1.5" d="M397.43,-84 L430.27,-84"/>
<polygon fill="#2ca02c" stroke="#2ca02c" stroke-width="1.5" points="430.27,-86.45 437.27,-84 430.27,-81.55 430.27,-86.45"/>
</g>
<!-- 8fe39cae7c60fc8b702b0a740a89943ef1e24f61 -->
<g id="node11" class="node">
<title>8fe39cae7c60fc8b702b0a740a89943ef1e24f61</title>
<ellipse fill="#cb007b" stroke="#cb007b" cx="556.12" cy="-192.12" rx="6.12" ry="6.12"/>
</g>
<!-- 31ca30aeb934203310a848d4bade4bbdcc76594d&#45;&gt;8fe39cae7c60fc8b702b0a740a89943ef1e24f61 -->
<g id="edge10" class="edge">
<title>31ca30aeb934203310a848d4bade4bbdcc76594d&#45;&gt;8fe39cae7c60fc8b702b0a740a89943ef1e24f61</title>
<path fill="none" stroke="#cb007b" stroke-width="1.5" d="M507.43,-192 L540.27,-192"/>
<polygon fill="#cb007b" stroke="#cb007b" stroke-width="1.5" points="540.27,-194.45 547.27,-192 540.27,-189.55 540.27,-194.45"/>
</g>
<!-- 149c84c3f359b7a24d25685ddf1c814776ba90ba -->
<g id="node12" class="node">
<title>149c84c3f359b7a24d25685ddf1c814776ba90ba</title>
<ellipse fill="#cb007b" stroke="#cb007b" cx="611.12" cy="-192.12" rx="6.12" ry="6.12"/>
</g>
<!-- 8fe39cae7c60fc8b702b0a740a89943ef1e24f61&#45;&gt;149c84c3f359b7a24d25685ddf1c814776ba90ba -->
<g id="edge11" class="edge">
<title>8fe39cae7c60fc8b702b0a740a89943ef1e24f61&#45;&gt;149c84c3f359b7a24d25685ddf1c814776ba90ba</title>
<path fill="none" stroke="#cb007b" stroke-width="1.5" d="M562.43,-192 L595.27,-192"/>
<polygon fill="#cb007b" stroke="#cb007b" stroke-width="1.5" points="595.27,-194.45 602.27,-192 595.27,-189.55 595.27,-194.45"/>
</g>
<!-- 12b924195df5c7f2cc05713915042acbc50850ff -->
<g id="node13" class="node">
<title>12b924195df5c7f2cc05713915042acbc50850ff</title>
<ellipse fill="#cb007b" stroke="#cb007b" cx="666.12" cy="-192.12" rx="6.12" ry="6.12"/>
</g>
<!-- 149c84c3f359b7a24d25685ddf1c814776ba90ba&#45;&gt;12b924195df5c7f2cc05713915042acbc50850ff -->
<g id="edge12" class="edge">
<title>149c84c3f359b7a24d25685ddf1c814776ba90ba&#45;&gt;12b924195df5c7f2cc05713915042acbc50850ff</title>
<path fill="none" stroke="#cb007b" stroke-width="1.5" d="M617.43,-192 L650.27,-192"/>
<polygon fill="#cb007b" stroke="#cb007b" stroke-width="1.5" points="650.27,-194.45 657.27,-192 650.27,-189.55 650.27,-194.45"/>
</g>
<!-- af86c45f244e575a59b1f22c8557e8cacf183ee8 -->
<g id="node29" class="node">
<title>af86c45f244e575a59b1f22c8557e8cacf183ee8</title>
<ellipse fill="#cb007b" stroke="#cb007b" cx="1546.12" cy="-192.12" rx="6.12" ry="6.12"/>
</g>
<!-- 149c84c3f359b7a24d25685ddf1c814776ba90ba&#45;&gt;af86c45f244e575a59b1f22c8557e8cacf183ee8 -->
<g id="edge29" class="edge">
<title>149c84c3f359b7a24d25685ddf1c814776ba90ba&#45;&gt;af86c45f244e575a59b1f22c8557e8cacf183ee8</title>
<path fill="none" stroke="#cb007b" stroke-width="1.5" d="M613.16,-186.08 L613.16,-178 Q613.16,-170 621.16,-170 L1542.95,-170 Q1546.12,-170 1546.12,-173.17 L1546.12,-176.33"/>
<polygon fill="#cb007b" stroke="#cb007b" stroke-width="1.5" points="1543.67,-176.33 1546.12,-183.33 1548.57,-176.33 1543.67,-176.33"/>
</g>
<!-- bca3916a17ff48b0f173542d1f9e33a71ff402c0 -->
<g id="node30" class="node">
<title>bca3916a17ff48b0f173542d1f9e33a71ff402c0</title>
<ellipse fill="#1f77b4" stroke="#1f77b4" cx="1601.12" cy="-156.12" rx="6.12" ry="6.12"/>
</g>
<!-- 149c84c3f359b7a24d25685ddf1c814776ba90ba&#45;&gt;bca3916a17ff48b0f173542d1f9e33a71ff402c0 -->
<g id="edge31" class="edge">
<title>149c84c3f359b7a24d25685ddf1c814776ba90ba&#45;&gt;bca3916a17ff48b0f173542d1f9e33a71ff402c0</title>
<path fill="none" stroke="#1f77b4" stroke-width="1.5" d="M609.08,-185.83 L609.08,-164 Q609.08,-156 617.08,-156 L1585.25,-156"/>
<polygon fill="#1f77b4" stroke="#1f77b4" stroke-width="1.5" points="1585.25,-158.45 1592.25,-156 1585.25,-153.55 1585.25,-158.45"/>
</g>
<!-- 2a32e98cb1d2fdee71e92643cdc4455151684f78 -->
<g id="node14" class="node">
<title>2a32e98cb1d2fdee71e92643cdc4455151684f78</title>
<ellipse fill="#cb007b" stroke="#cb007b" cx="721.12" cy="-192.12" rx="6.12" ry="6.12"/>
</g>
<!-- 12b924195df5c7f2cc05713915042acbc50850ff&#45;&gt;2a32e98cb1d2fdee71e92643cdc4455151684f78 -->
<g id="edge13" class="edge">
<title>12b924195df5c7f2cc05713915042acbc50850ff&#45;&gt;2a32e98cb1d2fdee71e92643cdc4455151684f78</title>
<path fill="none" stroke="#cb007b" stroke-width="1.5" d="M672.43,-192 L705.27,-192"/>
<polygon fill="#cb007b" stroke="#cb007b" stroke-width="1.5" points="705.27,-194.45 712.27,-192 705.27,-189.55 705.27,-194.45"/>
</g>
<!-- d5408845ff7be9e6b541cbb27b5af825ab436651 -->
<g id="node15" class="node">
<title>d5408845ff7be9e6b541cbb27b5af825ab436651</title>
<ellipse fill="#cb007b" stroke="#cb007b" cx="776.12" cy="-192.12" rx="6.12" ry="6.12"/>
</g>
<!-- 12b924195df5c7f2cc05713915042acbc50850ff&#45;&gt;d5408845ff7be9e6b541cbb27b5af825ab436651 -->
<g id="edge14" class="edge">
<title>12b924195df5c7f2cc05713915042acbc50850ff&#45;&gt;d5408845ff7be9e6b541cbb27b5af825ab436651</title>
<path fill="none" stroke="#cb007b" stroke-width="1.5" d="M666.12,-185.72 L666.12,-181.86 Q666.12,-178 669.98,-178 L775.74,-178 Q776.12,-178 776.12,-178.38 L776.12,-178.77"/>
<polygon fill="#cb007b" stroke="#cb007b" stroke-width="1.5" points="773.67,-176.45 776.12,-183.45 778.57,-176.45 773.67,-176.45"/>
</g>
<!-- 2a32e98cb1d2fdee71e92643cdc4455151684f78&#45;&gt;d5408845ff7be9e6b541cbb27b5af825ab436651 -->
<g id="edge15" class="edge">
<title>2a32e98cb1d2fdee71e92643cdc4455151684f78&#45;&gt;d5408845ff7be9e6b541cbb27b5af825ab436651</title>
<path fill="none" stroke="#cb007b" stroke-width="1.5" d="M727.43,-192 L760.27,-192"/>
<polygon fill="#cb007b" stroke="#cb007b" stroke-width="1.5" points="760.27,-194.45 767.27,-192 760.27,-189.55 760.27,-194.45"/>
</g>
<!-- aa2e8e71906730753f0e8bbb2d5f195c046f59c5 -->
<g id="node16" class="node">
<title>aa2e8e71906730753f0e8bbb2d5f195c046f59c5</title>
<ellipse fill="#cb007b" stroke="#cb007b" cx="831.12" cy="-192.12" rx="6.12" ry="6.12"/>
</g>
<!-- d5408845ff7be9e6b541cbb27b5af825ab436651&#45;&gt;aa2e8e71906730753f0e8bbb2d5f195c046f59c5 -->
<g id="edge16" class="edge">
<title>d5408845ff7be9e6b541cbb27b5af825ab436651&#45;&gt;aa2e8e71906730753f0e8bbb2d5f195c046f59c5</title>
<path fill="none" stroke="#cb007b" stroke-width="1.5" d="M782.43,-192 L815.27,-192"/>
<polygon fill="#cb007b" stroke="#cb007b" stroke-width="1.5" points="815.27,-194.45 822.27,-192 815.27,-189.55 815.27,-194.45"/>
</g>
<!-- 5ae973eea65e7537ed474a68baf734bcfdaa31e8 -->
<g id="node17" class="node">
<title>5ae973eea65e7537ed474a68baf734bcfdaa31e8</title>
<ellipse fill="#cb007b" stroke="#cb007b" cx="886.12" cy="-192.12" rx="6.12" ry="6.12"/>
</g>
<!-- aa2e8e71906730753f0e8bbb2d5f195c046f59c5&#45;&gt;5ae973eea65e7537ed474a68baf734bcfdaa31e8 -->
<g id="edge17" class="edge">
<title>aa2e8e71906730753f0e8bbb2d5f195c046f59c5&#45;&gt;5ae973eea65e7537ed474a68baf734bcfdaa31e8</title>
<path fill="none" stroke="#cb007b" stroke-width="1.5" d="M837.43,-192 L870.27,-192"/>
<polygon fill="#cb007b" stroke="#cb007b" stroke-width="1.5" points="870.27,-194.45 877.27,-192 870.27,-189.55 870.27,-194.45"/>
</g>
<!-- 9df9b4509b0f37d9319fb9c1c23ec4382f9dd95d -->
<g id="node18" class="node">
<title>9df9b4509b0f37d9319fb9c1c23ec4382f9dd95d</title>
<ellipse fill="#cb007b" stroke="#cb007b" cx="941.12" cy="-192.12" rx="6.12" ry="6.12"/>
</g>
<!-- 5ae973eea65e7537ed474a68baf734bcfdaa31e8&#45;&gt;9df9b4509b0f37d9319fb9c1c23ec4382f9dd95d -->
<g id="edge18" class="edge">
<title>5ae973eea65e7537ed474a68baf734bcfdaa31e8&#45;&gt;9df9b4509b0f37d9319fb9c1c23ec4382f9dd95d</title>
<path fill="none" stroke="#cb007b" stroke-width="1.5" d="M892.43,-192 L925.27,-192"/>
<polygon fill="#cb007b" stroke="#cb007b" stroke-width="1.5" points="925.27,-194.45 932.27,-192 925.27,-189.55 925.27,-194.45"/>
</g>
<!-- 3c873ca8a0b29a8568e783847ea22c89a67227a5 -->
<g id="node19" class="node">
<title>3c873ca8a0b29a8568e783847ea22c89a67227a5</title>
<ellipse fill="#cb007b" stroke="#cb007b" cx="996.12" cy="-192.12" rx="6.12" ry="6.12"/>
</g>
<!-- 9df9b4509b0f37d9319fb9c1c23ec4382f9dd95d&#45;&gt;3c873ca8a0b29a8568e783847ea22c89a67227a5 -->
<g id="edge19" class="edge">
<title>9df9b4509b0f37d9319fb9c1c23ec4382f9dd95d&#45;&gt;3c873ca8a0b29a8568e783847ea22c89a67227a5</title>
<path fill="none" stroke="#cb007b" stroke-width="1.5" d="M947.43,-192 L980.27,-192"/>
<polygon fill="#cb007b" stroke="#cb007b" stroke-width="1.5" points="980.27,-194.45 987.27,-192 980.27,-189.55 980.27,-194.45"/>
</g>
<!-- b0a73ff7ad03e07942ed729dcdbc3d3c3cb11fdd -->
<g id="node20" class="node">
<title>b0a73ff7ad03e07942ed729dcdbc3d3c3cb11fdd</title>
<ellipse fill="#cb007b" stroke="#cb007b" cx="1051.12" cy="-192.12" rx="6.12" ry="6.12"/>
</g>
<!-- 3c873ca8a0b29a8568e783847ea22c89a67227a5&#45;&gt;b0a73ff7ad03e07942ed729dcdbc3d3c3cb11fdd -->
<g id="edge20" class="edge">
<title>3c873ca8a0b29a8568e783847ea22c89a67227a5&#45;&gt;b0a73ff7ad03e07942ed729dcdbc3d3c3cb11fdd</title>
<path fill="none" stroke="#cb007b" stroke-width="1.5" d="M1002.43,-192 L1035.27,-192"/>
<polygon fill="#cb007b" stroke="#cb007b" stroke-width="1.5" points="1035.27,-194.45 1042.27,-192 1035.27,-189.55 1035.27,-194.45"/>
</g>
<!-- eab38cf968740ac8260aaa94f086c014e8b06de2 -->
<g id="node21" class="node">
<title>eab38cf968740ac8260aaa94f086c014e8b06de2</title>
<ellipse fill="#cb007b" stroke="#cb007b" cx="1106.12" cy="-192.12" rx="6.12" ry="6.12"/>
</g>
<!-- b0a73ff7ad03e07942ed729dcdbc3d3c3cb11fdd&#45;&gt;eab38cf968740ac8260aaa94f086c014e8b06de2 -->
<g id="edge21" class="edge">
<title>b0a73ff7ad03e07942ed729dcdbc3d3c3cb11fdd&#45;&gt;eab38cf968740ac8260aaa94f086c014e8b06de2</title>
<path fill="none" stroke="#cb007b" stroke-width="1.5" d="M1057.43,-192 L1090.27,-192"/>
<polygon fill="#cb007b" stroke="#cb007b" stroke-width="1.5" points="1090.27,-194.45 1097.27,-192 1090.27,-189.55 1090.27,-194.45"/>
</g>
<!-- 2f89d06a5aa0bc2053c2adbbee323486643846c0 -->
<g id="node22" class="node">
<title>2f89d06a5aa0bc2053c2adbbee323486643846c0</title>
<ellipse fill="#cb007b" stroke="#cb007b" cx="1161.12" cy="-192.12" rx="6.12" ry="6.12"/>
</g>
<!-- eab38cf968740ac8260aaa94f086c014e8b06de2&#45;&gt;2f89d06a5aa0bc2053c2adbbee323486643846c0 -->
<g id="edge22" class="edge">
<title>eab38cf968740ac8260aaa94f086c014e8b06de2&#45;&gt;2f89d06a5aa0bc2053c2adbbee323486643846c0</title>
<path fill="none" stroke="#cb007b" stroke-width="1.5" d="M1112.43,-192 L1145.27,-192"/>
<polygon fill="#cb007b" stroke="#cb007b" stroke-width="1.5" points="1145.27,-194.45 1152.27,-192 1145.27,-189.55 1145.27,-194.45"/>
</g>
<!-- b6ba031d714ce2ff7c4a8dace9056734527db946 -->
<g id="node23" class="node">
<title>b6ba031d714ce2ff7c4a8dace9056734527db946</title>
<ellipse fill="#cb007b" stroke="#cb007b" cx="1216.12" cy="-192.12" rx="6.12" ry="6.12"/>
</g>
<!-- 2f89d06a5aa0bc2053c2adbbee323486643846c0&#45;&gt;b6ba031d714ce2ff7c4a8dace9056734527db946 -->
<g id="edge23" class="edge">
<title>2f89d06a5aa0bc2053c2adbbee323486643846c0&#45;&gt;b6ba031d714ce2ff7c4a8dace9056734527db946</title>
<path fill="none" stroke="#cb007b" stroke-width="1.5" d="M1167.43,-192 L1200.27,-192"/>
<polygon fill="#cb007b" stroke="#cb007b" stroke-width="1.5" points="1200.27,-194.45 1207.27,-192 1200.27,-189.55 1200.27,-194.45"/>
</g>
<!-- 46b9c7a9554f8e0c95fc66599edc309810e66462 -->
<g id="node24" class="node">
<title>46b9c7a9554f8e0c95fc66599edc309810e66462</title>
<ellipse fill="#ff7f0e" stroke="#ff7f0e" cx="1271.12" cy="-120.12" rx="6.12" ry="6.12"/>
</g>
<!-- b6ba031d714ce2ff7c4a8dace9056734527db946&#45;&gt;46b9c7a9554f8e0c95fc66599edc309810e66462 -->
<g id="edge24" class="edge">
<title>b6ba031d714ce2ff7c4a8dace9056734527db946&#45;&gt;46b9c7a9554f8e0c95fc66599edc309810e66462</title>
<path fill="none" stroke="#ff7f0e" stroke-width="1.5" d="M1222.01,-190 L1263.12,-190 Q1271.12,-190 1271.12,-182 L1271.12,-135.84"/>
<polygon fill="#ff7f0e" stroke="#ff7f0e" stroke-width="1.5" points="1273.57,-135.84 1271.12,-128.84 1268.67,-135.84 1273.57,-135.84"/>
</g>
<!-- 7955fb9dc94d9732d5dcff8af93769a741868c1c -->
<g id="node26" class="node">
<title>7955fb9dc94d9732d5dcff8af93769a741868c1c</title>
<ellipse fill="#cb007b" stroke="#cb007b" cx="1381.12" cy="-192.12" rx="6.12" ry="6.12"/>
</g>
<!-- b6ba031d714ce2ff7c4a8dace9056734527db946&#45;&gt;7955fb9dc94d9732d5dcff8af93769a741868c1c -->
<g id="edge26" class="edge">
<title>b6ba031d714ce2ff7c4a8dace9056734527db946&#45;&gt;7955fb9dc94d9732d5dcff8af93769a741868c1c</title>
<path fill="none" stroke="#cb007b" stroke-width="1.5" d="M1222.39,-194 L1365.58,-194"/>
<polygon fill="#cb007b" stroke="#cb007b" stroke-width="1.5" points="1365.58,-196.45 1372.58,-194 1365.58,-191.55 1365.58,-196.45"/>
</g>
<!-- 359c9a26fa6da24fcd2f2b0f58e8a2b8d2b3e2b0 -->
<g id="node25" class="node">
<title>359c9a26fa6da24fcd2f2b0f58e8a2b8d2b3e2b0</title>
<ellipse fill="#ff7f0e" stroke="#ff7f0e" cx="1326.12" cy="-120.12" rx="6.12" ry="6.12"/>
</g>
<!-- 46b9c7a9554f8e0c95fc66599edc309810e66462&#45;&gt;359c9a26fa6da24fcd2f2b0f58e8a2b8d2b3e2b0 -->
<g id="edge25" class="edge">
<title>46b9c7a9554f8e0c95fc66599edc309810e66462&#45;&gt;359c9a26fa6da24fcd2f2b0f58e8a2b8d2b3e2b0</title>
<path fill="none" stroke="#ff7f0e" stroke-width="1.5" d="M1277.43,-120 L1310.27,-120"/>
<polygon fill="#ff7f0e" stroke="#ff7f0e" stroke-width="1.5" points="1310.27,-122.45 1317.27,-120 1310.27,-117.55 1310.27,-122.45"/>
</g>
<!-- ccd11995cb2083aa9f53dbada61e01963d14d2f6 -->
<g id="node27" class="node">
<title>ccd11995cb2083aa9f53dbada61e01963d14d2f6</title>
<ellipse fill="#cb007b" stroke="#cb007b" cx="1436.12" cy="-192.12" rx="6.12" ry="6.12"/>
</g>
<!-- 7955fb9dc94d9732d5dcff8af93769a741868c1c&#45;&gt;ccd11995cb2083aa9f53dbada61e01963d14d2f6 -->
<g id="edge27" class="edge">
<title>7955fb9dc94d9732d5dcff8af93769a741868c1c&#45;&gt;ccd11995cb2083aa9f53dbada61e01963d14d2f6</title>
<path fill="none" stroke="#cb007b" stroke-width="1.5" d="M1387.43,-192 L1420.27,-192"/>
<polygon fill="#cb007b" stroke="#cb007b" stroke-width="1.5" points="1420.27,-194.45 1427.27,-192 1420.27,-189.55 1420.27,-194.45"/>
</g>
<!-- f11dc95e26b6293f70d111014ecd8a67e018c7a7 -->
<g id="node28" class="node">
<title>f11dc95e26b6293f70d111014ecd8a67e018c7a7</title>
<ellipse fill="#cb007b" stroke="#cb007b" cx="1491.12" cy="-192.12" rx="6.12" ry="6.12"/>
</g>
<!-- ccd11995cb2083aa9f53dbada61e01963d14d2f6&#45;&gt;f11dc95e26b6293f70d111014ecd8a67e018c7a7 -->
<g id="edge28" class="edge">
<title>ccd11995cb2083aa9f53dbada61e01963d14d2f6&#45;&gt;f11dc95e26b6293f70d111014ecd8a67e018c7a7</title>
<path fill="none" stroke="#cb007b" stroke-width="1.5" d="M1442.43,-192 L1475.27,-192"/>
<polygon fill="#cb007b" stroke="#cb007b" stroke-width="1.5" points="1475.27,-194.45 1482.27,-192 1475.27,-189.55 1475.27,-194.45"/>
</g>
<!-- f11dc95e26b6293f70d111014ecd8a67e018c7a7&#45;&gt;af86c45f244e575a59b1f22c8557e8cacf183ee8 -->
<g id="edge30" class="edge">
<title>f11dc95e26b6293f70d111014ecd8a67e018c7a7&#45;&gt;af86c45f244e575a59b1f22c8557e8cacf183ee8</title>
<path fill="none" stroke="#cb007b" stroke-width="1.5" d="M1497.43,-192 L1530.27,-192"/>
<polygon fill="#cb007b" stroke="#cb007b" stroke-width="1.5" points="1530.27,-194.45 1537.27,-192 1530.27,-189.55 1530.27,-194.45"/>
</g>
<!-- legend_dot_main -->
<g id="node31" class="node">
<title>legend_dot_main</title>
<ellipse fill="#cb007b" stroke="#cb007b" cx="6.12" cy="-20.12" rx="5.76" ry="5.76"/>
</g>
<!-- legend_label_main -->
<g id="node32" class="node">
<title>legend_label_main</title>
<polygon fill="none" stroke="none" points="12.24,-12.24 0,-12.24 0,0 12.24,0 12.24,-12.24"/>
<text xml:space="preserve" text-anchor="middle" x="6.12" y="-2.24" font-family="Helvetica,sans-Serif" font-size="10.00" fill="#4a4a4a">main</text>
</g>
<!-- legend_dot_2026&#45;upgrade -->
<g id="node33" class="node">
<title>legend_dot_2026&#45;upgrade</title>
<ellipse fill="#1f77b4" stroke="#1f77b4" cx="146.12" cy="-20.12" rx="5.76" ry="5.76"/>
</g>
<!-- legend_label_2026&#45;upgrade -->
<g id="node34" class="node">
<title>legend_label_2026&#45;upgrade</title>
<polygon fill="none" stroke="none" points="152.24,-12.24 140,-12.24 140,0 152.24,0 152.24,-12.24"/>
<text xml:space="preserve" text-anchor="middle" x="146.12" y="-2.24" font-family="Helvetica,sans-Serif" font-size="10.00" fill="#4a4a4a">2026&#45;upgrade</text>
</g>
<!-- legend_dot_refactor&#45;lib -->
<g id="node35" class="node">
<title>legend_dot_refactor&#45;lib</title>
<ellipse fill="#ff7f0e" stroke="#ff7f0e" cx="286.12" cy="-20.12" rx="5.76" ry="5.76"/>
</g>
<!-- legend_label_refactor&#45;lib -->
<g id="node36" class="node">
<title>legend_label_refactor&#45;lib</title>
<polygon fill="none" stroke="none" points="292.24,-12.24 280,-12.24 280,0 292.24,0 292.24,-12.24"/>
<text xml:space="preserve" text-anchor="middle" x="286.12" y="-2.24" font-family="Helvetica,sans-Serif" font-size="10.00" fill="#4a4a4a">refactor&#45;lib</text>
</g>
<!-- legend_dot_refactor&#45;robot&#45;vs&#45;lib -->
<g id="node37" class="node">
<title>legend_dot_refactor&#45;robot&#45;vs&#45;lib</title>
<ellipse fill="#2ca02c" stroke="#2ca02c" cx="426.12" cy="-20.12" rx="5.76" ry="5.76"/>
</g>
<!-- legend_label_refactor&#45;robot&#45;vs&#45;lib -->
<g id="node38" class="node">
<title>legend_label_refactor&#45;robot&#45;vs&#45;lib</title>
<polygon fill="none" stroke="none" points="432.24,-12.24 420,-12.24 420,0 432.24,0 432.24,-12.24"/>
<text xml:space="preserve" text-anchor="middle" x="426.12" y="-2.24" font-family="Helvetica,sans-Serif" font-size="10.00" fill="#4a4a4a">refactor&#45;robot&#45;vs&#45;lib</text>
</g>
<!-- legend_dot_sensor&#45;testing -->
<g id="node39" class="node">
<title>legend_dot_sensor&#45;testing</title>
<ellipse fill="#9467bd" stroke="#9467bd" cx="566.12" cy="-20.12" rx="5.76" ry="5.76"/>
</g>
<!-- legend_label_sensor&#45;testing -->
<g id="node40" class="node">
<title>legend_label_sensor&#45;testing</title>
<polygon fill="none" stroke="none" points="572.24,-12.24 560,-12.24 560,0 572.24,0 572.24,-12.24"/>
<text xml:space="preserve" text-anchor="middle" x="566.12" y="-2.24" font-family="Helvetica,sans-Serif" font-size="10.00" fill="#4a4a4a">sensor&#45;testing</text>
</g>
</g>
</svg>
